<svg width="27" height="27" viewBox="0 0 27 27" fill="none" xmlns="http://www.w3.org/2000/svg">
<path d="M2.66667 22.7333V20.0667H5.33333V10.7333C5.33333 8.88889 5.88889 7.25 7 5.81667C8.11111 4.38333 9.55556 3.44444 11.3333 3V2.06667C11.3333 1.51111 11.5278 1.03889 11.9167 0.65C12.3056 0.261111 12.7778 0.0666667 13.3333 0.0666667C13.8889 0.0666667 14.3611 0.261111 14.75 0.65C15.1389 1.03889 15.3333 1.51111 15.3333 2.06667V3C17.1111 3.44444 18.5556 4.38333 19.6667 5.81667C20.7778 7.25 21.3333 8.88889 21.3333 10.7333V20.0667H24V22.7333H2.66667ZM13.3333 26.7333C12.6 26.7333 11.9722 26.4722 11.45 25.95C10.9278 25.4278 10.6667 24.8 10.6667 24.0667H16C16 24.8 15.7389 25.4278 15.2167 25.95C14.6944 26.4722 14.0667 26.7333 13.3333 26.7333ZM0 10.7333C0 8.51111 0.494444 6.47222 1.48333 4.61667C2.47222 2.76111 3.8 1.22222 5.46667 0L7.03333 2.13333C5.7 3.11111 4.63889 4.34444 3.85 5.83333C3.06111 7.32222 2.66667 8.95556 2.66667 10.7333H0ZM24 10.7333C24 8.95556 23.6056 7.32222 22.8167 5.83333C22.0278 4.34444 20.9667 3.11111 19.6333 2.13333L21.2 0C22.8667 1.22222 24.1944 2.76111 25.1833 4.61667C26.1722 6.47222 26.6667 8.51111 26.6667 10.7333H24Z" fill="white"/>
</svg>
