<svg width="24" height="24" viewBox="0 0 24 24" fill="none" xmlns="http://www.w3.org/2000/svg">
<path d="M22.0633 19.9846V9.80024C22.4945 9.7847 22.9091 9.62974 23.245 9.35852C23.581 9.08731 23.8203 8.71443 23.9271 8.29563C24.0464 7.86849 24.0186 7.41356 23.8484 7.00414C23.6781 6.59472 23.3752 6.25465 22.9885 6.03872L12.999 0.26209C12.6939 0.0902604 12.3499 0 12 0C11.6501 0 11.3061 0.0902604 11.001 0.26209L1.01148 6.03872C0.624778 6.25465 0.321895 6.59472 0.151623 7.00414C-0.018648 7.41356 -0.0463929 7.86849 0.0728585 8.29563C0.183372 8.72756 0.434668 9.11015 0.786889 9.38273C1.13911 9.6553 1.57208 9.80224 2.01714 9.80024H2.19145V19.9698H2.03055C1.49711 19.9698 0.985522 20.1821 0.608326 20.56C0.23113 20.9379 0.0192233 21.4505 0.0192233 21.9849C0.0192233 22.5193 0.23113 23.0319 0.608326 23.4098C0.985522 23.7877 1.49711 24 2.03055 24H21.9695C22.4734 23.9702 22.9476 23.7516 23.2982 23.3877C23.6487 23.0238 23.8498 22.5412 23.8616 22.0356C23.8735 21.53 23.6951 21.0384 23.362 20.6585C23.0288 20.2785 22.5653 20.038 22.0633 19.9846ZM2.01714 8.45684C1.86935 8.45495 1.72624 8.40467 1.60964 8.31367C1.49305 8.22267 1.40937 8.09595 1.37138 7.95285C1.33339 7.80974 1.34318 7.65812 1.39925 7.52111C1.45532 7.38411 1.55459 7.26924 1.68192 7.19404L11.6715 1.43219C11.7704 1.37165 11.8841 1.33962 12 1.33962C12.1159 1.33962 12.2296 1.37165 12.3285 1.43219L22.3248 7.19404C22.4575 7.26569 22.5622 7.38004 22.6221 7.51866C22.6819 7.65727 22.6934 7.81205 22.6547 7.958C22.6159 8.10396 22.5292 8.23257 22.4085 8.32308C22.2879 8.41359 22.1403 8.46071 21.9896 8.45684H2.01714ZM20.7224 9.80024V19.9698H15.8886V9.80024H20.7224ZM14.541 9.80024V19.9698H9.70039V9.80024H14.541ZM8.35951 9.80024V19.9698H3.53233V9.80024H8.35951ZM21.9695 22.6566H2.03055C1.85273 22.6566 1.6822 22.5858 1.55647 22.4599C1.43074 22.3339 1.3601 22.163 1.3601 21.9849C1.3601 21.8068 1.43074 21.6359 1.55647 21.5099C1.6822 21.384 1.85273 21.3132 2.03055 21.3132H21.9695C22.1473 21.3132 22.3178 21.384 22.4435 21.5099C22.5693 21.6359 22.6399 21.8068 22.6399 21.9849C22.6399 22.163 22.5693 22.3339 22.4435 22.4599C22.3178 22.5858 22.1473 22.6566 21.9695 22.6566Z" fill="#F39C12"/>
</svg>
