<svg width="32" height="32" viewBox="0 0 32 32" fill="none" xmlns="http://www.w3.org/2000/svg">
<g clip-path="url(#clip0_339_32)">
<path fill-rule="evenodd" clip-rule="evenodd" d="M12 25C12 25.2652 12.1054 25.5196 12.2929 25.7071C12.4804 25.8946 12.7348 26 13 26H29C29.2652 26 29.5196 25.8946 29.7071 25.7071C29.8946 25.5196 30 25.2652 30 25V7C30 6.73478 29.8946 6.48043 29.7071 6.29289C29.5196 6.10536 29.2652 6 29 6H13C12.7348 6 12.4804 6.10536 12.2929 6.29289C12.1054 6.48043 12 6.73478 12 7V11C12 11.2652 11.8946 11.5196 11.7071 11.7071C11.5196 11.8946 11.2652 12 11 12C10.7348 12 10.4804 11.8946 10.2929 11.7071C10.1054 11.5196 10 11.2652 10 11V7C10 6.20435 10.3161 5.44129 10.8787 4.87868C11.4413 4.31607 12.2044 4 13 4H29C29.7956 4 30.5587 4.31607 31.1213 4.87868C31.6839 5.44129 32 6.20435 32 7V25C32 25.7956 31.6839 26.5587 31.1213 27.1213C30.5587 27.6839 29.7956 28 29 28H13C12.2044 28 11.4413 27.6839 10.8787 27.1213C10.3161 26.5587 10 25.7956 10 25V21C10 20.7348 10.1054 20.4804 10.2929 20.2929C10.4804 20.1054 10.7348 20 11 20C11.2652 20 11.5196 20.1054 11.7071 20.2929C11.8946 20.4804 12 20.7348 12 21V25Z" fill="#23A3A6"/>
<path fill-rule="evenodd" clip-rule="evenodd" d="M0.291834 16.7078C0.198708 16.6149 0.124822 16.5046 0.0744094 16.3831C0.0239965 16.2616 -0.00195313 16.1313 -0.00195312 15.9998C-0.00195313 15.8683 0.0239965 15.738 0.0744094 15.6165C0.124822 15.495 0.198708 15.3847 0.291834 15.2918L6.29183 9.2918C6.38481 9.19882 6.49519 9.12507 6.61667 9.07475C6.73815 9.02443 6.86835 8.99854 6.99983 8.99854C7.13132 8.99854 7.26152 9.02443 7.383 9.07475C7.50448 9.12507 7.61486 9.19882 7.70783 9.2918C7.80081 9.38477 7.87456 9.49515 7.92488 9.61663C7.9752 9.73811 8.0011 9.86831 8.0011 9.9998C8.0011 10.1313 7.9752 10.2615 7.92488 10.383C7.87456 10.5044 7.80081 10.6148 7.70783 10.7078L3.41383 14.9998H20.9998C21.2651 14.9998 21.5194 15.1052 21.7069 15.2927C21.8945 15.4802 21.9998 15.7346 21.9998 15.9998C21.9998 16.265 21.8945 16.5194 21.7069 16.7069C21.5194 16.8944 21.2651 16.9998 20.9998 16.9998H3.41383L7.70783 21.2918C7.80081 21.3848 7.87456 21.4952 7.92488 21.6166C7.9752 21.7381 8.0011 21.8683 8.0011 21.9998C8.0011 22.1313 7.9752 22.2615 7.92488 22.383C7.87456 22.5044 7.80081 22.6148 7.70783 22.7078C7.61486 22.8008 7.50448 22.8745 7.383 22.9248C7.26152 22.9752 7.13132 23.0011 6.99983 23.0011C6.86835 23.0011 6.73815 22.9752 6.61667 22.9248C6.49519 22.8745 6.38481 22.8008 6.29183 22.7078L0.291834 16.7078Z" fill="#23A3A6"/>
</g>
<defs>
<clipPath id="clip0_339_32">
<rect width="32" height="32" fill="white"/>
</clipPath>
</defs>
</svg>
