<svg width="16" height="16" viewBox="0 0 16 16" fill="none" xmlns="http://www.w3.org/2000/svg">
<path fill-rule="evenodd" clip-rule="evenodd" d="M4.406 1.342C5.40548 0.480135 6.68024 0.00413852 8 0C10.69 0 12.923 2 13.166 4.579C14.758 4.804 16 6.137 16 7.773C16 9.569 14.502 11 12.687 11H10C9.86739 11 9.74021 10.9473 9.64645 10.8536C9.55268 10.7598 9.5 10.6326 9.5 10.5C9.5 10.3674 9.55268 10.2402 9.64645 10.1464C9.74021 10.0527 9.86739 10 10 10H12.688C13.979 10 15 8.988 15 7.773C15 6.557 13.98 5.545 12.687 5.545H12.187V5.045C12.188 2.825 10.328 1 8 1C6.91988 1.00431 5.87684 1.39443 5.059 2.1C4.302 2.752 3.906 3.538 3.906 4.155V4.603L3.461 4.652C2.064 4.805 1 5.952 1 7.318C1 8.785 2.23 10 3.781 10H6C6.13261 10 6.25979 10.0527 6.35355 10.1464C6.44732 10.2402 6.5 10.3674 6.5 10.5C6.5 10.6326 6.44732 10.7598 6.35355 10.8536C6.25979 10.9473 6.13261 11 6 11H3.781C1.708 11 0 9.366 0 7.318C0 5.555 1.266 4.095 2.942 3.725C3.085 2.862 3.64 2.002 4.406 1.342Z" fill="white"/>
<path fill-rule="evenodd" clip-rule="evenodd" d="M7.64566 4.14592C7.6921 4.09935 7.74728 4.06241 7.80802 4.0372C7.86877 4.012 7.93389 3.99902 7.99966 3.99902C8.06542 3.99902 8.13054 4.012 8.19129 4.0372C8.25203 4.06241 8.30721 4.09935 8.35366 4.14592L11.3537 7.14592C11.4475 7.2398 11.5003 7.36714 11.5003 7.49992C11.5003 7.63269 11.4475 7.76003 11.3537 7.85392C11.2598 7.9478 11.1324 8.00055 10.9997 8.00055C10.8669 8.00055 10.7395 7.9478 10.6457 7.85392L8.49966 5.70692V14.4999C8.49966 14.6325 8.44698 14.7597 8.35321 14.8535C8.25944 14.9472 8.13226 14.9999 7.99966 14.9999C7.86705 14.9999 7.73987 14.9472 7.6461 14.8535C7.55233 14.7597 7.49966 14.6325 7.49966 14.4999V5.70692L5.35366 7.85392C5.25977 7.9478 5.13243 8.00055 4.99966 8.00055C4.86688 8.00055 4.73954 7.9478 4.64566 7.85392C4.55177 7.76003 4.49902 7.63269 4.49902 7.49992C4.49902 7.36714 4.55177 7.2398 4.64566 7.14592L7.64566 4.14592Z" fill="white"/>
</svg>
