<svg width="16" height="16" viewBox="0 0 16 16" fill="none" xmlns="http://www.w3.org/2000/svg">
<g clip-path="url(#clip0_8_1621)">
<path d="M12.1458 0.146161C12.1923 0.0995981 12.2474 0.0626553 12.3082 0.0374488C12.3689 0.0122424 12.434 -0.000732422 12.4998 -0.000732422C12.5656 -0.000732422 12.6307 0.0122424 12.6914 0.0374488C12.7522 0.0626553 12.8074 0.0995981 12.8538 0.146161L15.8538 3.14616C15.9004 3.19261 15.9373 3.24778 15.9625 3.30853C15.9877 3.36927 16.0007 3.43439 16.0007 3.50016C16.0007 3.56593 15.9877 3.63105 15.9625 3.69179C15.9373 3.75254 15.9004 3.80772 15.8538 3.85416L5.85381 13.8542C5.80582 13.9018 5.74867 13.9392 5.68581 13.9642L0.685806 15.9642C0.594942 16.0005 0.495402 16.0094 0.399526 15.9898C0.303649 15.9701 0.215653 15.9227 0.146447 15.8535C0.0772403 15.7843 0.0298668 15.6963 0.0101994 15.6004C-0.0094681 15.5046 -0.000564594 15.405 0.0358061 15.3142L2.03581 10.3142C2.06073 10.2513 2.09816 10.1941 2.14581 10.1462L12.1458 0.146161ZM11.2068 2.50016L13.4998 4.79316L14.7928 3.50016L12.4998 1.20716L11.2068 2.50016ZM12.7928 5.50016L10.4998 3.20716L3.99981 9.70716V10.0002H4.49981C4.63241 10.0002 4.75959 10.0528 4.85336 10.1466C4.94713 10.2404 4.99981 10.3676 4.99981 10.5002V11.0002H5.49981C5.63241 11.0002 5.75959 11.0528 5.85336 11.1466C5.94713 11.2404 5.99981 11.3676 5.99981 11.5002V12.0002H6.29281L12.7928 5.50016ZM3.03181 10.6752L2.92581 10.7812L1.39781 14.6022L5.21881 13.0742L5.32481 12.9682C5.22942 12.9325 5.1472 12.8686 5.08912 12.785C5.03104 12.7014 4.99988 12.602 4.99981 12.5002V12.0002H4.49981C4.3672 12.0002 4.24002 11.9475 4.14625 11.8537C4.05248 11.7599 3.99981 11.6328 3.99981 11.5002V11.0002H3.49981C3.39799 11.0001 3.29861 10.9689 3.21498 10.9108C3.13135 10.8528 3.06744 10.7705 3.03181 10.6752Z" fill="black"/>
</g>
<defs>
<clipPath id="clip0_8_1621">
<rect width="16" height="16" fill="white"/>
</clipPath>
</defs>
</svg>
