<svg width="28" height="28" viewBox="0 0 28 28" fill="none" xmlns="http://www.w3.org/2000/svg">
<g clip-path="url(#clip0_25_1380)">
<path d="M14 26.25C10.7511 26.25 7.63526 24.9594 5.33794 22.6621C3.04062 20.3647 1.75 17.2489 1.75 14C1.75 10.7511 3.04062 7.63526 5.33794 5.33794C7.63526 3.04062 10.7511 1.75 14 1.75C17.2489 1.75 20.3647 3.04062 22.6621 5.33794C24.9594 7.63526 26.25 10.7511 26.25 14C26.25 17.2489 24.9594 20.3647 22.6621 22.6621C20.3647 24.9594 17.2489 26.25 14 26.25ZM14 28C17.713 28 21.274 26.525 23.8995 23.8995C26.525 21.274 28 17.713 28 14C28 10.287 26.525 6.72601 23.8995 4.10051C21.274 1.475 17.713 0 14 0C10.287 0 6.72601 1.475 4.10051 4.10051C1.475 6.72601 0 10.287 0 14C0 17.713 1.475 21.274 4.10051 23.8995C6.72601 26.525 10.287 28 14 28Z" fill="#222222"/>
<path d="M14 7C14.2321 7 14.4546 7.09219 14.6187 7.25628C14.7828 7.42038 14.875 7.64294 14.875 7.875V13.125H20.125C20.3571 13.125 20.5796 13.2172 20.7437 13.3813C20.9078 13.5454 21 13.7679 21 14C21 14.2321 20.9078 14.4546 20.7437 14.6187C20.5796 14.7828 20.3571 14.875 20.125 14.875H14.875V20.125C14.875 20.3571 14.7828 20.5796 14.6187 20.7437C14.4546 20.9078 14.2321 21 14 21C13.7679 21 13.5454 20.9078 13.3813 20.7437C13.2172 20.5796 13.125 20.3571 13.125 20.125V14.875H7.875C7.64294 14.875 7.42038 14.7828 7.25628 14.6187C7.09219 14.4546 7 14.2321 7 14C7 13.7679 7.09219 13.5454 7.25628 13.3813C7.42038 13.2172 7.64294 13.125 7.875 13.125H13.125V7.875C13.125 7.64294 13.2172 7.42038 13.3813 7.25628C13.5454 7.09219 13.7679 7 14 7Z" fill="#222222"/>
</g>
<defs>
<clipPath id="clip0_25_1380">
<rect width="28" height="28" fill="white"/>
</clipPath>
</defs>
</svg>
