<svg width="40" height="40" viewBox="0 0 40 40" fill="none" xmlns="http://www.w3.org/2000/svg">
<path d="M0 8.16327C0 3.65482 3.65482 0 8.16327 0H31.8367C36.3452 0 40 3.65482 40 8.16327V31.8367C40 36.3452 36.3452 40 31.8367 40H8.16327C3.65482 40 0 36.3452 0 31.8367V8.16327Z" fill="#F3F4F6"/>
<g clip-path="url(#clip0_8_1612)">
<path d="M24.1458 12.1462C24.1923 12.0996 24.2474 12.0627 24.3082 12.0374C24.3689 12.0122 24.434 11.9993 24.4998 11.9993C24.5656 11.9993 24.6307 12.0122 24.6914 12.0374C24.7522 12.0627 24.8074 12.0996 24.8538 12.1462L27.8538 15.1462C27.9004 15.1926 27.9373 15.2478 27.9625 15.3085C27.9877 15.3693 28.0007 15.4344 28.0007 15.5002C28.0007 15.5659 27.9877 15.631 27.9625 15.6918C27.9373 15.7525 27.9004 15.8077 27.8538 15.8542L17.8538 25.8542C17.8058 25.9018 17.7487 25.9392 17.6858 25.9642L12.6858 27.9642C12.5949 28.0005 12.4954 28.0094 12.3995 27.9898C12.3036 27.9701 12.2157 27.9227 12.1464 27.8535C12.0772 27.7843 12.0299 27.6963 12.0102 27.6004C11.9905 27.5046 11.9994 27.405 12.0358 27.3142L14.0358 22.3142C14.0607 22.2513 14.0982 22.1941 14.1458 22.1462L24.1458 12.1462ZM23.2068 14.5002L25.4998 16.7932L26.7928 15.5002L24.4998 13.2072L23.2068 14.5002ZM24.7928 17.5002L22.4998 15.2072L15.9998 21.7072V22.0002H16.4998C16.6324 22.0002 16.7596 22.0528 16.8534 22.1466C16.9471 22.2404 16.9998 22.3676 16.9998 22.5002V23.0002H17.4998C17.6324 23.0002 17.7596 23.0528 17.8534 23.1466C17.9471 23.2404 17.9998 23.3676 17.9998 23.5002V24.0002H18.2928L24.7928 17.5002ZM15.0318 22.6752L14.9258 22.7812L13.3978 26.6022L17.2188 25.0742L17.3248 24.9682C17.2294 24.9325 17.1472 24.8686 17.0891 24.785C17.031 24.7014 16.9999 24.602 16.9998 24.5002V24.0002H16.4998C16.3672 24.0002 16.24 23.9475 16.1463 23.8537C16.0525 23.7599 15.9998 23.6328 15.9998 23.5002V23.0002H15.4998C15.398 23.0001 15.2986 22.9689 15.215 22.9108C15.1314 22.8528 15.0674 22.7705 15.0318 22.6752Z" fill="black"/>
</g>
<defs>
<clipPath id="clip0_8_1612">
<rect width="16" height="16" fill="white" transform="translate(12 12)"/>
</clipPath>
</defs>
</svg>
