<svg width="22" height="22" viewBox="0 0 22 22" fill="none" xmlns="http://www.w3.org/2000/svg">
<path d="M4.68722 10.0447H18.0801C18.2577 10.0447 18.428 10.1152 18.5536 10.2408C18.6792 10.3664 18.7497 10.5367 18.7497 10.7143C18.7497 10.8919 18.6792 11.0622 18.5536 11.1878C18.428 11.3134 18.2577 11.384 18.0801 11.384H4.68722C4.50962 11.384 4.33929 11.3134 4.21371 11.1878C4.08813 11.0622 4.01758 10.8919 4.01758 10.7143C4.01758 10.5367 4.08813 10.3664 4.21371 10.2408C4.33929 10.1152 4.50962 10.0447 4.68722 10.0447Z" fill="white"/>
<path d="M4.96439 10.7144L10.5184 16.267C10.6442 16.3928 10.7148 16.5633 10.7148 16.7412C10.7148 16.919 10.6442 17.0895 10.5184 17.2153C10.3927 17.341 10.2221 17.4116 10.0443 17.4116C9.86648 17.4116 9.69594 17.341 9.5702 17.2153L3.54341 11.1885C3.48105 11.1263 3.43157 11.0524 3.39782 10.971C3.36406 10.8897 3.34668 10.8024 3.34668 10.7144C3.34668 10.6263 3.36406 10.5391 3.39782 10.4577C3.43157 10.3764 3.48105 10.3025 3.54341 10.2403L9.5702 4.21347C9.69594 4.08773 9.86648 4.01709 10.0443 4.01709C10.2221 4.01709 10.3927 4.08773 10.5184 4.21347C10.6442 4.33921 10.7148 4.50975 10.7148 4.68758C10.7148 4.8654 10.6442 5.03594 10.5184 5.16169L4.96439 10.7144Z" fill="white"/>
</svg>
