<svg width="16" height="16" viewBox="0 0 16 16" fill="none" xmlns="http://www.w3.org/2000/svg">
<path d="M6.35384 11.0464L3.05984 7.75437C3.01372 7.70661 2.95854 7.66852 2.89754 7.64232C2.83654 7.61611 2.77093 7.60232 2.70454 7.60174C2.63815 7.60117 2.57231 7.61382 2.51086 7.63896C2.44941 7.6641 2.39359 7.70123 2.34664 7.74817C2.2997 7.79512 2.26257 7.85094 2.23743 7.91239C2.21229 7.97384 2.19964 8.03968 2.20021 8.10607C2.20079 8.17246 2.21458 8.23807 2.24079 8.29907C2.26699 8.36007 2.30508 8.41525 2.35284 8.46137L6.35284 12.4614L14.3528 4.46137C14.4439 4.36707 14.4943 4.24077 14.4932 4.10967C14.492 3.97857 14.4395 3.85316 14.3467 3.76046C14.254 3.66776 14.1286 3.61517 13.9975 3.61403C13.8664 3.61289 13.7401 3.66329 13.6458 3.75437L6.35284 11.0464H6.35384Z" fill="#6B7280"/>
</svg>
