<svg width="16" height="14" viewBox="0 0 16 14" fill="none" xmlns="http://www.w3.org/2000/svg">
<path d="M0.5 8.8999C0.632608 8.8999 0.759785 8.95258 0.853553 9.04635C0.947322 9.14012 1 9.26729 1 9.3999V11.8999C1 12.1651 1.10536 12.4195 1.29289 12.607C1.48043 12.7945 1.73478 12.8999 2 12.8999H14C14.2652 12.8999 14.5196 12.7945 14.7071 12.607C14.8946 12.4195 15 12.1651 15 11.8999V9.3999C15 9.26729 15.0527 9.14012 15.1464 9.04635C15.2402 8.95258 15.3674 8.8999 15.5 8.8999C15.6326 8.8999 15.7598 8.95258 15.8536 9.04635C15.9473 9.14012 16 9.26729 16 9.3999V11.8999C16 12.4303 15.7893 12.939 15.4142 13.3141C15.0391 13.6892 14.5304 13.8999 14 13.8999H2C1.46957 13.8999 0.960859 13.6892 0.585786 13.3141C0.210714 12.939 0 12.4303 0 11.8999V9.3999C0 9.26729 0.0526784 9.14012 0.146447 9.04635C0.240215 8.95258 0.367392 8.8999 0.5 8.8999Z" fill="black"/>
<path d="M7.64566 10.854C7.6921 10.9006 7.74728 10.9375 7.80802 10.9627C7.86877 10.9879 7.93389 11.0009 7.99966 11.0009C8.06542 11.0009 8.13054 10.9879 8.19129 10.9627C8.25203 10.9375 8.30721 10.9006 8.35366 10.854L11.3537 7.854C11.4475 7.76011 11.5003 7.63278 11.5003 7.5C11.5003 7.36722 11.4475 7.23989 11.3537 7.146C11.2598 7.05211 11.1324 6.99937 10.9997 6.99937C10.8669 6.99937 10.7395 7.05211 10.6457 7.146L8.49966 9.293V0.5C8.49966 0.367392 8.44698 0.240215 8.35321 0.146447C8.25944 0.0526784 8.13226 0 7.99966 0C7.86705 0 7.73987 0.0526784 7.6461 0.146447C7.55233 0.240215 7.49966 0.367392 7.49966 0.5V9.293L5.35366 7.146C5.25977 7.05211 5.13243 6.99937 4.99966 6.99937C4.86688 6.99937 4.73954 7.05211 4.64566 7.146C4.55177 7.23989 4.49902 7.36722 4.49902 7.5C4.49902 7.63278 4.55177 7.76011 4.64566 7.854L7.64566 10.854Z" fill="black"/>
</svg>
