<svg width="32" height="32" viewBox="0 0 32 32" fill="none" xmlns="http://www.w3.org/2000/svg">
<path d="M19.3337 6.66699H16.667C12.8963 6.66699 11.0097 6.66699 9.83899 7.83899C8.66699 9.00966 8.66699 10.8963 8.66699 14.667V21.3337C8.66699 25.1043 8.66699 26.991 9.83899 28.1617C11.0097 29.3337 12.8963 29.3337 16.667 29.3337H18.4577C19.5483 29.3337 20.0923 29.3337 20.583 29.131C21.0737 28.9283 21.4577 28.543 22.2297 27.771L25.771 24.2297C26.543 23.4577 26.927 23.0737 27.131 22.583C27.3337 22.0923 27.3337 21.5483 27.3337 20.4577V14.667C27.3337 10.8963 27.3337 9.00966 26.1617 7.83899C24.991 6.66699 23.1043 6.66699 19.3337 6.66699Z" stroke="#6B7280" stroke-width="2" stroke-linecap="round" stroke-linejoin="round"/>
<path d="M20.0003 28.667V27.3337C20.0003 24.819 20.0003 23.563 20.7817 22.7817C21.563 22.0003 22.819 22.0003 25.3337 22.0003H26.667M8.66699 25.3337C7.60613 25.3337 6.58871 24.9122 5.83857 24.1621C5.08842 23.4119 4.66699 22.3945 4.66699 21.3337V10.667C4.66699 6.89633 4.66699 5.00966 5.83899 3.83899C7.00966 2.66699 8.89633 2.66699 12.667 2.66699H19.3337C20.3945 2.66699 21.4119 3.08842 22.1621 3.83857C22.9122 4.58871 23.3337 5.60613 23.3337 6.66699M13.335 17.3337H18.6683M13.335 12.0003H22.6683" stroke="#6B7280" stroke-width="2" stroke-linecap="round" stroke-linejoin="round"/>
</svg>
