<svg width="17" height="14" viewBox="0 0 17 14" fill="none" xmlns="http://www.w3.org/2000/svg">
<path d="M0.88631 1.53409C0.88631 1.12722 1.04794 0.737023 1.33563 0.449325C1.62333 0.161627 2.01353 0 2.4204 0H5.24722C6.22699 0 7.04722 0.572727 7.61074 1.21091C8.03006 1.68545 8.53631 2.04545 9.06813 2.04545H13.6704C14.0773 2.04545 14.4675 2.20708 14.7552 2.49478C15.0429 2.78248 15.2045 3.17268 15.2045 3.57955V4.23409C15.7874 4.50511 16.1659 5.13 16.0799 5.81523L15.4254 11.0557C15.3481 11.6745 15.0473 12.2437 14.5796 12.6562C14.1119 13.0687 13.5096 13.296 12.886 13.2955H3.20381C2.58056 13.2955 1.97874 13.0679 1.51148 12.6555C1.04422 12.243 0.743707 11.6741 0.666424 11.0557L0.0118782 5.81523C-0.0284449 5.49306 0.03449 5.1664 0.191625 4.88227C0.34876 4.59814 0.591991 4.37119 0.88631 4.23409V1.53409ZM1.90904 4.09091H14.1818V3.57955C14.1818 3.44392 14.1279 3.31386 14.032 3.21796C13.9361 3.12206 13.806 3.06818 13.6704 3.06818H9.06813C8.08222 3.06818 7.31927 2.42489 6.84472 1.88795C6.38245 1.36432 5.81586 1.02273 5.24722 1.02273H2.4204C2.28478 1.02273 2.15471 1.0766 2.05881 1.1725C1.96291 1.2684 1.90904 1.39847 1.90904 1.53409V4.09091ZM1.5337 5.11364C1.4612 5.11366 1.38954 5.12909 1.32347 5.15892C1.25739 5.18874 1.19841 5.23227 1.15044 5.28663C1.10247 5.34098 1.06661 5.40491 1.04522 5.47418C1.02384 5.54345 1.01743 5.61647 1.02642 5.68841L1.68097 10.9289C1.72735 11.3 1.90772 11.6414 2.18816 11.8889C2.4686 12.1364 2.82979 12.2729 3.20381 12.2727H12.887C13.261 12.2729 13.6222 12.1364 13.9026 11.8889C14.1831 11.6414 14.3635 11.3 14.4098 10.9289L15.0644 5.68841C15.0734 5.61647 15.067 5.54345 15.0456 5.47418C15.0242 5.40491 14.9883 5.34098 14.9404 5.28663C14.8924 5.23227 14.8334 5.18874 14.7673 5.15892C14.7013 5.12909 14.6296 5.11366 14.5571 5.11364H1.5337Z" fill="#97392D"/>
</svg>
