<svg width="24" height="22" viewBox="0 0 24 22" fill="none" xmlns="http://www.w3.org/2000/svg">
<g clip-path="url(#clip0_4_1326)">
<path d="M22 2.66667H16V6.66667H8V2.66667H2C0.895833 2.66667 0 3.5625 0 4.66667V19.3333C0 20.4375 0.895833 21.3333 2 21.3333H22C23.1042 21.3333 24 20.4375 24 19.3333V4.66667C24 3.5625 23.1042 2.66667 22 2.66667ZM12 9.33333C13.4708 9.33333 14.6667 10.5292 14.6667 12C14.6667 13.4708 13.4708 14.6667 12 14.6667C10.5292 14.6667 9.33333 13.4708 9.33333 12C9.33333 10.5292 10.5292 9.33333 12 9.33333ZM15.8875 18.6667H8.1125C7.67917 18.6667 7.32917 18.25 7.4625 17.8417C7.80833 16.775 8.8125 16 10 16H10.3417C10.8542 16.2125 11.4125 16.3333 12 16.3333C12.5875 16.3333 13.15 16.2125 13.6583 16H14C15.1833 16 16.1875 16.7708 16.5375 17.8417C16.6708 18.25 16.3208 18.6667 15.8875 18.6667ZM14.6667 1.33333C14.6667 0.595833 14.0708 0 13.3333 0H10.6667C9.92917 0 9.33333 0.595833 9.33333 1.33333V5.33333H14.6667V1.33333Z" fill="#23A3A6"/>
</g>
<defs>
<clipPath id="clip0_4_1326">
<rect width="24" height="21.3333" fill="white"/>
</clipPath>
</defs>
</svg>
