<svg width="36" height="36" viewBox="0 0 36 36" fill="none" xmlns="http://www.w3.org/2000/svg">
<circle cx="18" cy="18" r="18" fill="#F0F0F0"/>
<g clip-path="url(#clip0_10_822)">
<path d="M10.8408 12.8858C10.8408 12.6145 10.9486 12.3544 11.1404 12.1626C11.3322 11.9708 11.5923 11.863 11.8635 11.863H24.1363C24.4075 11.863 24.6677 11.9708 24.8595 12.1626C25.0513 12.3544 25.159 12.6145 25.159 12.8858H10.8408ZM17.9999 21.0676C18.5424 21.0676 19.0627 20.8521 19.4463 20.4685C19.8299 20.0849 20.0454 19.5646 20.0454 19.0221C20.0454 18.4796 19.8299 17.9594 19.4463 17.5758C19.0627 17.1922 18.5424 16.9767 17.9999 16.9767C17.4574 16.9767 16.9372 17.1922 16.5536 17.5758C16.17 17.9594 15.9545 18.4796 15.9545 19.0221C15.9545 19.5646 16.17 20.0849 16.5536 20.4685C16.9372 20.8521 17.4574 21.0676 17.9999 21.0676Z" fill="#0B3C5C"/>
<path d="M9.81836 14.9314C9.81836 14.6602 9.92611 14.4 10.1179 14.2082C10.3097 14.0164 10.5698 13.9087 10.8411 13.9087H25.1593C25.4305 13.9087 25.6906 14.0164 25.8824 14.2082C26.0742 14.4 26.182 14.6602 26.182 14.9314V23.1132C26.182 23.3845 26.0742 23.6446 25.8824 23.8364C25.6906 24.0282 25.4305 24.136 25.1593 24.136H10.8411C10.5698 24.136 10.3097 24.0282 10.1179 23.8364C9.92611 23.6446 9.81836 23.3845 9.81836 23.1132V14.9314ZM12.8865 14.9314C12.8865 15.4739 12.671 15.9942 12.2874 16.3778C11.9038 16.7614 11.3836 16.9769 10.8411 16.9769V21.0678C11.3836 21.0678 11.9038 21.2833 12.2874 21.6669C12.671 22.0505 12.8865 22.5707 12.8865 23.1132H23.1138C23.1138 22.5707 23.3293 22.0505 23.7129 21.6669C24.0965 21.2833 24.6168 21.0678 25.1593 21.0678V16.9769C24.6168 16.9769 24.0965 16.7614 23.7129 16.3778C23.3293 15.9942 23.1138 15.4739 23.1138 14.9314H12.8865Z" fill="#0B3C5C"/>
</g>
<defs>
<clipPath id="clip0_10_822">
<rect width="16.3636" height="16.3636" fill="white" transform="translate(9.81836 9.81812)"/>
</clipPath>
</defs>
</svg>
