<svg width="36" height="36" viewBox="0 0 36 36" fill="none" xmlns="http://www.w3.org/2000/svg">
<circle cx="18" cy="18" r="18" fill="#F0F0F0"/>
<g clip-path="url(#clip0_25_608)">
<path fill-rule="evenodd" clip-rule="evenodd" d="M10.8408 21.5796C10.8408 21.7153 10.8946 21.8453 10.9905 21.9412C11.0864 22.0371 11.2165 22.091 11.3521 22.091H23.4131L20.1946 25.3085C20.0986 25.4045 20.0447 25.5348 20.0447 25.6705C20.0447 25.8063 20.0986 25.9366 20.1946 26.0326C20.2906 26.1286 20.4209 26.1826 20.5567 26.1826C20.6925 26.1826 20.8227 26.1286 20.9187 26.0326L25.0096 21.9417C25.0572 21.8942 25.095 21.8378 25.1208 21.7756C25.1466 21.7135 25.1599 21.6469 25.1599 21.5796C25.1599 21.5124 25.1466 21.4458 25.1208 21.3836C25.095 21.3215 25.0572 21.2651 25.0096 21.2176L20.9187 17.1267C20.8227 17.0307 20.6925 16.9767 20.5567 16.9767C20.4209 16.9767 20.2906 17.0307 20.1946 17.1267C20.0986 17.2227 20.0447 17.3529 20.0447 17.4887C20.0447 17.6245 20.0986 17.7548 20.1946 17.8508L23.4131 21.0683H11.3521C11.2165 21.0683 11.0864 21.1221 10.9905 21.218C10.8946 21.3139 10.8408 21.444 10.8408 21.5796ZM25.1589 14.4205C25.1589 14.5562 25.1051 14.6862 25.0092 14.7821C24.9133 14.878 24.7832 14.9319 24.6476 14.9319H12.5866L15.8051 18.1494C15.8526 18.197 15.8903 18.2534 15.9161 18.3155C15.9418 18.3776 15.955 18.4442 15.955 18.5115C15.955 18.5787 15.9418 18.6453 15.9161 18.7074C15.8903 18.7695 15.8526 18.826 15.8051 18.8735C15.7575 18.921 15.7011 18.9588 15.639 18.9845C15.5768 19.0102 15.5103 19.0235 15.443 19.0235C15.3758 19.0235 15.3092 19.0102 15.2471 18.9845C15.185 18.9588 15.1285 18.921 15.081 18.8735L10.9901 14.7826C10.9425 14.7351 10.9047 14.6787 10.8789 14.6165C10.8531 14.5544 10.8398 14.4878 10.8398 14.4205C10.8398 14.3533 10.8531 14.2867 10.8789 14.2246C10.9047 14.1624 10.9425 14.106 10.9901 14.0585L15.081 9.96759C15.177 9.87157 15.3072 9.81763 15.443 9.81763C15.5788 9.81763 15.7091 9.87157 15.8051 9.96759C15.9011 10.0636 15.955 10.1938 15.955 10.3296C15.955 10.4654 15.9011 10.5957 15.8051 10.6917L12.5866 13.9092H24.6476C24.7832 13.9092 24.9133 13.9631 25.0092 14.059C25.1051 14.1549 25.1589 14.2849 25.1589 14.4205Z" fill="#0B3C5C"/>
</g>
<defs>
<clipPath id="clip0_25_608">
<rect width="16.3636" height="16.3636" fill="white" transform="translate(9.81836 9.81824)"/>
</clipPath>
</defs>
</svg>
