<svg width="36" height="36" viewBox="0 0 36 36" fill="none" xmlns="http://www.w3.org/2000/svg">
<circle cx="18" cy="18" r="18" fill="#F0F0F0"/>
<g clip-path="url(#clip0_10_831)">
<path d="M9.81836 13.9087C9.81836 13.3662 10.0339 12.846 10.4175 12.4624C10.8011 12.0788 11.3213 11.8633 11.8638 11.8633H24.1365C24.679 11.8633 25.1993 12.0788 25.5829 12.4624C25.9665 12.846 26.182 13.3662 26.182 13.9087V22.0906C26.182 22.633 25.9665 23.1533 25.5829 23.5369C25.1993 23.9205 24.679 24.136 24.1365 24.136H11.8638C11.3213 24.136 10.8011 23.9205 10.4175 23.5369C10.0339 23.1533 9.81836 22.633 9.81836 22.0906V13.9087ZM11.8638 12.886C11.5926 12.886 11.3324 12.9938 11.1406 13.1856C10.9488 13.3774 10.8411 13.6375 10.8411 13.9087V14.9315H25.1593V13.9087C25.1593 13.6375 25.0515 13.3774 24.8597 13.1856C24.6679 12.9938 24.4078 12.886 24.1365 12.886H11.8638ZM25.1593 16.9769H10.8411V22.0906C10.8411 22.3618 10.9488 22.6219 11.1406 22.8137C11.3324 23.0055 11.5926 23.1133 11.8638 23.1133H24.1365C24.4078 23.1133 24.6679 23.0055 24.8597 22.8137C25.0515 22.6219 25.1593 22.3618 25.1593 22.0906V16.9769Z" fill="#0B3C5C"/>
<path d="M11.8633 20.0449C11.8633 19.7737 11.971 19.5136 12.1628 19.3218C12.3546 19.13 12.6148 19.0222 12.886 19.0222H13.9087C14.18 19.0222 14.4401 19.13 14.6319 19.3218C14.8237 19.5136 14.9315 19.7737 14.9315 20.0449V21.0677C14.9315 21.3389 14.8237 21.599 14.6319 21.7908C14.4401 21.9826 14.18 22.0904 13.9087 22.0904H12.886C12.6148 22.0904 12.3546 21.9826 12.1628 21.7908C11.971 21.599 11.8633 21.3389 11.8633 21.0677V20.0449Z" fill="#0B3C5C"/>
</g>
<defs>
<clipPath id="clip0_10_831">
<rect width="16.3636" height="16.3636" fill="white" transform="translate(9.81836 9.81812)"/>
</clipPath>
</defs>
</svg>
