<svg width="24" height="18" viewBox="0 0 24 18" fill="none" xmlns="http://www.w3.org/2000/svg">
<path fill-rule="evenodd" clip-rule="evenodd" d="M9 15.75C9 15.9489 9.07902 16.1397 9.21967 16.2803C9.36032 16.421 9.55109 16.5 9.75 16.5H21.75C21.9489 16.5 22.1397 16.421 22.2803 16.2803C22.421 16.1397 22.5 15.9489 22.5 15.75V2.25C22.5 2.05109 22.421 1.86032 22.2803 1.71967C22.1397 1.57902 21.9489 1.5 21.75 1.5H9.75C9.55109 1.5 9.36032 1.57902 9.21967 1.71967C9.07902 1.86032 9 2.05109 9 2.25V5.25C9 5.44891 8.92098 5.63968 8.78033 5.78033C8.63968 5.92098 8.44891 6 8.25 6C8.05109 6 7.86032 5.92098 7.71967 5.78033C7.57902 5.63968 7.5 5.44891 7.5 5.25V2.25C7.5 1.65326 7.73705 1.08097 8.15901 0.65901C8.58097 0.237053 9.15326 0 9.75 0H21.75C22.3467 0 22.919 0.237053 23.341 0.65901C23.7629 1.08097 24 1.65326 24 2.25V15.75C24 16.3467 23.7629 16.919 23.341 17.341C22.919 17.7629 22.3467 18 21.75 18H9.75C9.15326 18 8.58097 17.7629 8.15901 17.341C7.73705 16.919 7.5 16.3467 7.5 15.75V12.75C7.5 12.5511 7.57902 12.3603 7.71967 12.2197C7.86032 12.079 8.05109 12 8.25 12C8.44891 12 8.63968 12.079 8.78033 12.2197C8.92098 12.3603 9 12.5511 9 12.75V15.75Z" fill="#97392D"/>
<path fill-rule="evenodd" clip-rule="evenodd" d="M0.218876 9.53097C0.149031 9.4613 0.0936167 9.37854 0.055807 9.28742C0.0179974 9.1963 -0.00146484 9.09862 -0.00146484 8.99997C-0.00146484 8.90132 0.0179974 8.80364 0.055807 8.71252C0.0936167 8.6214 0.149031 8.53864 0.218876 8.46897L4.71888 3.96897C4.78861 3.89924 4.87139 3.84392 4.9625 3.80619C5.05361 3.76845 5.15126 3.74902 5.24988 3.74902C5.34849 3.74902 5.44614 3.76845 5.53725 3.80619C5.62836 3.84392 5.71114 3.89924 5.78088 3.96897C5.85061 4.0387 5.90592 4.12149 5.94366 4.2126C5.9814 4.3037 6.00082 4.40136 6.00082 4.49997C6.00082 4.59859 5.9814 4.69624 5.94366 4.78735C5.90592 4.87846 5.85061 4.96124 5.78088 5.03097L2.56038 8.24997H15.7499C15.9488 8.24997 16.1396 8.32899 16.2802 8.46964C16.4209 8.61029 16.4999 8.80106 16.4999 8.99997C16.4999 9.19888 16.4209 9.38965 16.2802 9.5303C16.1396 9.67095 15.9488 9.74997 15.7499 9.74997H2.56038L5.78088 12.969C5.85061 13.0387 5.90592 13.1215 5.94366 13.2126C5.9814 13.3037 6.00082 13.4014 6.00082 13.5C6.00082 13.5986 5.9814 13.6962 5.94366 13.7873C5.90592 13.8785 5.85061 13.9612 5.78088 14.031C5.71114 14.1007 5.62836 14.156 5.53725 14.1938C5.44614 14.2315 5.34849 14.2509 5.24988 14.2509C5.15126 14.2509 5.05361 14.2315 4.9625 14.1938C4.87139 14.156 4.78861 14.1007 4.71888 14.031L0.218876 9.53097Z" fill="#97392D"/>
</svg>
