<svg width="36" height="36" viewBox="0 0 36 36" fill="none" xmlns="http://www.w3.org/2000/svg">
<circle cx="18" cy="18" r="18" fill="#F0F0F0"/>
<g clip-path="url(#clip0_25_594)">
<path d="M10.8414 13.3976C10.8414 12.9907 11.003 12.6005 11.2907 12.3128C11.5784 12.0251 11.9686 11.8635 12.3755 11.8635H15.2023C16.1821 11.8635 17.0023 12.4362 17.5658 13.0744C17.9851 13.5489 18.4914 13.9089 19.0232 13.9089H23.6255C24.0323 13.9089 24.4225 14.0705 24.7102 14.3582C24.9979 14.6459 25.1596 15.0361 25.1596 15.443V16.0976C25.7425 16.3686 26.1209 16.9935 26.035 17.6787L25.3805 22.9191C25.3032 23.5379 25.0023 24.1071 24.5347 24.5196C24.067 24.9321 23.4647 25.1595 22.841 25.1589H13.1589C12.5356 25.159 11.9338 24.9314 11.4666 24.519C10.9993 24.1065 10.6988 23.5376 10.6215 22.9191L9.96696 17.6787C9.92663 17.3565 9.98957 17.0299 10.1467 16.7457C10.3038 16.4616 10.5471 16.2347 10.8414 16.0976V13.3976ZM11.8641 15.9544H24.1368V15.443C24.1368 15.3074 24.083 15.1773 23.9871 15.0814C23.8912 14.9855 23.7611 14.9316 23.6255 14.9316H19.0232C18.0373 14.9316 17.2743 14.2884 16.7998 13.7514C16.3375 13.2278 15.7709 12.8862 15.2023 12.8862H12.3755C12.2399 12.8862 12.1098 12.9401 12.0139 13.036C11.918 13.1319 11.8641 13.2619 11.8641 13.3976V15.9544ZM11.4888 16.9771C11.4163 16.9771 11.3446 16.9926 11.2785 17.0224C11.2125 17.0522 11.1535 17.0957 11.1055 17.1501C11.0575 17.2044 11.0217 17.2684 11.0003 17.3376C10.9789 17.4069 10.9725 17.4799 10.9815 17.5519L11.636 22.7923C11.6824 23.1635 11.8628 23.5049 12.1432 23.7524C12.4237 23.9998 12.7849 24.1363 13.1589 24.1362H22.8421C23.2161 24.1363 23.5773 23.9998 23.8577 23.7524C24.1382 23.5049 24.3185 23.1635 24.3649 22.7923L25.0195 17.5519C25.0284 17.4799 25.022 17.4069 25.0007 17.3376C24.9793 17.2684 24.9434 17.2044 24.8954 17.1501C24.8475 17.0957 24.7885 17.0522 24.7224 17.0224C24.6563 16.9926 24.5847 16.9771 24.5122 16.9771H11.4888Z" fill="#0B3C5C"/>
</g>
<defs>
<clipPath id="clip0_25_594">
<rect width="16.3636" height="16.3636" fill="white" transform="translate(9.81836 9.81818)"/>
</clipPath>
</defs>
</svg>
