<svg width="32" height="32" viewBox="0 0 32 32" fill="none" xmlns="http://www.w3.org/2000/svg">
<path fill-rule="evenodd" clip-rule="evenodd" d="M6.66674 12.0003C6.66674 9.52497 7.65007 7.151 9.40041 5.40066C11.1507 3.65032 13.5247 2.66699 16.0001 2.66699C18.4754 2.66699 20.8494 3.65032 22.5997 5.40066C24.3501 7.151 25.3334 9.52497 25.3334 12.0003V17.019L27.7627 21.8777C27.8746 22.1013 27.9274 22.3498 27.9161 22.5996C27.9049 22.8493 27.83 23.0921 27.6985 23.3048C27.5671 23.5175 27.3834 23.693 27.165 23.8147C26.9467 23.9365 26.7008 24.0004 26.4507 24.0003H21.1654C20.8688 25.1446 20.2006 26.1581 19.2658 26.8816C18.3309 27.605 17.1822 27.9976 16.0001 27.9976C14.8179 27.9976 13.6693 27.605 12.7344 26.8816C11.7995 26.1581 11.1313 25.1446 10.8347 24.0003H5.5494C5.29937 24.0004 5.05349 23.9365 4.83509 23.8147C4.6167 23.693 4.43305 23.5175 4.3016 23.3048C4.17014 23.0921 4.09524 22.8493 4.084 22.5996C4.07277 22.3498 4.12557 22.1013 4.2374 21.8777L6.66674 17.019V12.0003ZM13.6907 24.0003C13.9248 24.4057 14.2614 24.7423 14.6668 24.9763C15.0722 25.2103 15.532 25.3335 16.0001 25.3335C16.4681 25.3335 16.928 25.2103 17.3333 24.9763C17.7387 24.7423 18.0753 24.4057 18.3094 24.0003H13.6907ZM16.0001 5.33366C14.232 5.33366 12.5363 6.03604 11.286 7.28628C10.0358 8.53652 9.3334 10.2322 9.3334 12.0003V17.019C9.33337 17.4328 9.23706 17.8409 9.05207 18.211L7.49207 21.3337H24.5094L22.9494 18.211C22.764 17.841 22.6672 17.4329 22.6667 17.019V12.0003C22.6667 10.2322 21.9644 8.53652 20.7141 7.28628C19.4639 6.03604 17.7682 5.33366 16.0001 5.33366Z" fill="#F39C12"/>
</svg>
