<svg width="32" height="32" viewBox="0 0 32 32" fill="none" xmlns="http://www.w3.org/2000/svg">
<path d="M27.9998 20V24H31.9998V26.6667H27.9998V30.6667H25.3332V26.6667H21.3332V24H25.3332V20H27.9998ZM28.0105 4C28.7412 4 29.3332 4.59333 29.3332 5.324V17.7893C28.4766 17.487 27.5748 17.3328 26.6665 17.3333V6.66667H5.33317L5.3345 25.3333L17.7238 12.9427C17.9533 12.7129 18.2586 12.5747 18.5827 12.5541C18.9067 12.5335 19.2271 12.6318 19.4838 12.8307L19.6092 12.944L24.3358 17.6773C23.302 17.9924 22.3427 18.5135 21.5158 19.2093C20.6888 19.9051 20.0113 20.7612 19.5242 21.7259C19.037 22.6906 18.7503 23.744 18.6812 24.8225C18.6122 25.901 18.7623 26.9824 19.1225 28.0013L3.98917 28C3.63826 27.9996 3.30183 27.86 3.05382 27.6117C2.80581 27.3635 2.6665 27.0269 2.6665 26.676V5.324C2.66894 4.97384 2.80904 4.63869 3.05652 4.39096C3.304 4.14322 3.63901 4.00279 3.98917 4H28.0105ZM10.6665 9.33333C11.3737 9.33333 12.052 9.61428 12.5521 10.1144C13.0522 10.6145 13.3332 11.2928 13.3332 12C13.3332 12.7072 13.0522 13.3855 12.5521 13.8856C12.052 14.3857 11.3737 14.6667 10.6665 14.6667C9.95926 14.6667 9.28098 14.3857 8.78089 13.8856C8.28079 13.3855 7.99984 12.7072 7.99984 12C7.99984 11.2928 8.28079 10.6145 8.78089 10.1144C9.28098 9.61428 9.95926 9.33333 10.6665 9.33333Z" fill="#97392D" fill-opacity="0.3"/>
</svg>
