<svg width="28" height="28" viewBox="0 0 28 28" fill="none" xmlns="http://www.w3.org/2000/svg">
<path fill-rule="evenodd" clip-rule="evenodd" d="M5.92492 5.91386C10.3524 1.49219 17.5508 1.53886 22.0051 5.99436C26.4618 10.451 26.5084 17.6529 22.0798 22.0804C17.6511 26.5079 10.4504 26.4624 5.99375 22.0057C4.74002 20.7574 3.79276 19.2354 3.22637 17.5593C2.65997 15.8832 2.48987 14.0986 2.72942 12.3457C2.76083 12.1156 2.88233 11.9075 3.06721 11.767C3.25209 11.6266 3.4852 11.5653 3.71525 11.5967C3.94531 11.6281 4.15346 11.7496 4.29393 11.9345C4.43439 12.1194 4.49566 12.3525 4.46425 12.5825C4.26088 14.0681 4.40484 15.5805 4.88482 17.001C5.36479 18.4215 6.1677 19.7113 7.23042 20.769C11.0163 24.5537 17.1098 24.5759 20.8431 20.8437C24.5753 17.1104 24.5531 11.0169 20.7684 7.23102C16.9849 3.44869 10.8949 3.42419 7.16159 7.15169L8.03425 7.15519C8.14916 7.15573 8.26284 7.17889 8.36879 7.22336C8.47474 7.26783 8.5709 7.33273 8.65178 7.41436C8.73265 7.49599 8.79665 7.59275 8.84013 7.69912C8.8836 7.80548 8.90571 7.91937 8.90517 8.03427C8.90463 8.14918 8.88147 8.26286 8.837 8.36881C8.79253 8.47477 8.72763 8.57093 8.646 8.6518C8.56437 8.73267 8.46761 8.79667 8.36124 8.84015C8.25488 8.88363 8.14099 8.90573 8.02609 8.90519L5.05575 8.89119C4.8251 8.88996 4.60427 8.79771 4.44128 8.63451C4.27829 8.4713 4.18634 8.25034 4.18542 8.01969L4.17025 5.05169C4.16964 4.93678 4.19167 4.82288 4.23507 4.71649C4.27848 4.61009 4.34242 4.51329 4.42323 4.43161C4.50405 4.34992 4.60017 4.28496 4.70609 4.24042C4.81202 4.19588 4.92568 4.17264 5.04059 4.17202C5.15549 4.17141 5.26939 4.19344 5.37579 4.23684C5.48218 4.28025 5.57899 4.34419 5.66067 4.42501C5.74236 4.50582 5.80732 4.60194 5.85186 4.70787C5.8964 4.81379 5.91964 4.92745 5.92025 5.04236L5.92492 5.91386ZM13.9983 8.45719C14.2303 8.45719 14.4529 8.54938 14.617 8.71347C14.7811 8.87757 14.8733 9.10013 14.8733 9.33219V13.6372L17.5344 16.2972C17.618 16.3779 17.6847 16.4744 17.7306 16.5811C17.7765 16.6879 17.8007 16.8027 17.8018 16.9188C17.8029 17.035 17.7808 17.1502 17.7368 17.2578C17.6929 17.3654 17.628 17.4631 17.5458 17.5453C17.4637 17.6275 17.3661 17.6925 17.2586 17.7365C17.151 17.7806 17.0358 17.8028 16.9197 17.8018C16.8035 17.8009 16.6886 17.7768 16.5819 17.731C16.4751 17.6852 16.3785 17.6186 16.2978 17.535L13.1244 14.3617V9.33336C13.1244 9.10129 13.2166 8.87873 13.3807 8.71464C13.5448 8.55055 13.7674 8.45836 13.9994 8.45836" fill="#222222"/>
</svg>
