<svg width="25" height="25" viewBox="0 0 25 25" fill="none" xmlns="http://www.w3.org/2000/svg">
<path d="M2.55347 14.7919H12.4002M2.55347 17.1831H7.47685M0.399902 4.03158C0.399902 3.82003 0.464738 3.61714 0.580163 3.46748C0.695589 3.31781 0.852164 3.23362 1.01549 3.2334H23.7843C23.9476 3.23362 24.1042 3.31781 24.2196 3.46748C24.3351 3.61714 24.3999 3.82003 24.3999 4.03158V20.7707C24.3996 20.9819 24.3346 21.1844 24.2192 21.3337C24.1038 21.483 23.9474 21.5669 23.7843 21.5672H1.01614C0.853037 21.5669 0.696658 21.483 0.58127 21.3337C0.465881 21.1844 0.400894 20.9819 0.400551 20.7707L0.399902 4.03158Z" stroke="#F39C12" stroke-width="0.8" stroke-linecap="round" stroke-linejoin="round"/>
<path d="M19.9165 13.9946H17.3238C17.1605 13.9946 17.0039 14.0787 16.8885 14.2282C16.7731 14.3777 16.7082 14.5805 16.7082 14.792C16.7082 15.0035 16.7731 15.2063 16.8885 15.3558C17.0039 15.5053 17.1605 15.5893 17.3238 15.5893H19.9172M1.93872 21.5673V23.2048C1.93872 23.8652 2.35192 24.4004 2.86177 24.4004H21.939C22.4489 24.4004 22.8621 23.8652 22.8621 23.2048V21.5673M1.93872 3.23435V1.59598C1.93872 0.935591 2.35192 0.400391 2.86177 0.400391H21.939C22.4489 0.400391 22.8621 0.935591 22.8621 1.59598V3.23351M22.2472 14.792C22.2472 15.2148 22.1175 15.6203 21.8867 15.9193C21.6558 16.2183 21.3428 16.3862 21.0163 16.3862C20.6899 16.3862 20.3768 16.2183 20.146 15.9193C19.9152 15.6203 19.7855 15.2148 19.7855 14.792C19.7855 14.3693 19.9151 13.9639 20.1459 13.665C20.3766 13.3661 20.6896 13.1981 21.016 13.1981C21.3423 13.1981 21.6553 13.3661 21.8861 13.665C22.1169 13.9639 22.2472 14.3693 22.2472 14.792ZM2.24619 6.42287C2.24619 6.21132 2.31102 6.00843 2.42645 5.85876C2.54188 5.7091 2.69845 5.62491 2.86177 5.62469H15.7851C15.9485 5.62491 16.105 5.7091 16.2205 5.85876C16.3359 6.00843 16.4007 6.21132 16.4007 6.42287V8.81404C16.4004 9.0253 16.3354 9.22776 16.22 9.37706C16.1046 9.52636 15.9482 9.61032 15.7851 9.61054H2.86177C2.69867 9.61032 2.5423 9.52636 2.42691 9.37706C2.31152 9.22776 2.24653 9.0253 2.24619 8.81404V6.42287Z" stroke="#F39C12" stroke-width="0.8" stroke-linecap="round" stroke-linejoin="round"/>
</svg>
