<svg width="70" height="70" viewBox="0 0 70 70" fill="none" xmlns="http://www.w3.org/2000/svg">
<path d="M51.7596 25.0721C52.25 25.5901 52.5147 26.2814 52.4958 26.9944C52.4769 27.7074 52.1758 28.3838 51.6587 28.875L31.9375 47.7211C31.4277 48.2008 30.7529 48.4659 30.0529 48.4615C29.3632 48.4641 28.6995 48.1987 28.2019 47.7211L18.3414 38.2981C18.0679 38.0595 17.8454 37.768 17.6875 37.4412C17.5295 37.1145 17.4392 36.7591 17.422 36.3966C17.4049 36.034 17.4612 35.6718 17.5876 35.3315C17.7141 34.9913 17.908 34.6802 18.1577 34.4168C18.4075 34.1534 18.7079 33.9433 19.0409 33.799C19.374 33.6547 19.7327 33.5792 20.0957 33.5771C20.4586 33.575 20.8183 33.6463 21.153 33.7867C21.4876 33.9271 21.7905 34.1338 22.0433 34.3942L30.0529 42.0336L47.9567 24.9711C48.4747 24.4808 49.1661 24.2161 49.8791 24.235C50.592 24.2539 51.2684 24.555 51.7596 25.0721ZM70 35C70 41.9223 67.9473 48.6892 64.1014 54.4449C60.2556 60.2007 54.7893 64.6867 48.3939 67.3358C41.9985 69.9848 34.9612 70.6779 28.1718 69.3275C21.3825 67.977 15.1461 64.6436 10.2513 59.7487C5.35644 54.8539 2.02301 48.6175 0.672531 41.8282C-0.677952 35.0388 0.015165 28.0015 2.66423 21.6061C5.3133 15.2107 9.79933 9.74441 15.5551 5.89856C21.3108 2.05271 28.0777 0 35 0C44.2771 0.0177893 53.1692 3.71099 59.7291 10.2709C66.289 16.8308 69.9822 25.7229 70 35ZM64.6154 35C64.6154 29.1426 62.8785 23.4168 59.6243 18.5466C56.3701 13.6763 51.7448 9.88047 46.3333 7.63895C40.9218 5.39743 34.9672 4.81095 29.2223 5.95367C23.4775 7.09638 18.2006 9.91697 14.0588 14.0588C9.91699 18.2005 7.0964 23.4775 5.95368 29.2223C4.81096 34.9671 5.39745 40.9218 7.63897 46.3333C9.88048 51.7448 13.6764 56.3701 18.5466 59.6243C23.4168 62.8785 29.1426 64.6154 35 64.6154C42.8518 64.6065 50.3794 61.4834 55.9314 55.9314C61.4834 50.3794 64.6065 42.8517 64.6154 35Z" fill="#23A3A6"/>
</svg>
